<?xml version="1.0" encoding="utf-8"?>
<!-- Generator: Adobe Illustrator 15.0.2, SVG Export Plug-In . SVG Version: 6.00 Build 0)  -->
<!DOCTYPE svg PUBLIC "-//W3C//DTD SVG 1.1//EN" "http://www.w3.org/Graphics/SVG/1.1/DTD/svg11.dtd">
<svg version="1.1" xmlns="http://www.w3.org/2000/svg" xmlns:xlink="http://www.w3.org/1999/xlink" x="0px" y="0px"
	 width="801.087px" height="329.519px" viewBox="0 0 801.087 329.519" enable-background="new 0 0 801.087 329.519"
	 xml:space="preserve">
<g id="Ebene_1">
	<g>
		<path fill="#005AA0" d="M162.256,221.252c0,19.476-10.45,32.775-25.745,32.775c-15.58,0-25.841-13.205-25.841-33.25
			c0-18.905,10.641-32.301,25.841-32.301C151.806,188.477,162.256,201.776,162.256,221.252z M118.271,220.872
			c0,16.436,7.125,26.886,18.24,26.886c10.925,0,18.146-10.546,18.146-26.506c0-16.055-7.221-26.505-18.146-26.505
			S118.271,205.197,118.271,220.872z"/>
		<path fill="#005AA0" d="M173.181,221.347c0-7.79-0.19-10.165-0.855-13.395h6.555c0.57,1.995,0.665,2.944,0.761,6.649
			c3.229-5.51,7.029-7.885,12.729-7.885c10.735,0,17.86,9.595,17.86,23.846c0,14.155-6.935,23.56-17.385,23.56
			c-5.7,0-9.69-2.279-13.016-7.41v24.985h-6.649V221.347z M179.735,230.467c0,10.641,4.94,17.86,12.16,17.86
			s11.495-6.649,11.495-17.575c0-11.115-4.465-18.24-11.495-18.24C184.58,212.512,179.735,219.637,179.735,230.467z"/>
		<path fill="#005AA0" d="M224.67,231.607c0.285,10.925,4.845,16.815,13.015,16.815c4.94,0,7.886-1.9,10.45-6.841l6.176,0.761
			c-2.756,7.79-8.455,11.779-16.721,11.779c-12.065,0-19.76-9.024-19.76-23.18c0-14.631,7.6-24.226,19.38-24.226
			c11.115,0,18.24,9.025,18.24,22.99c0,0.285,0,1.045-0.095,1.9H224.67z M248.516,226.382c-0.761-9.12-4.846-14.06-11.591-14.06
			c-6.555,0-10.735,4.845-12.065,14.06H248.516z"/>
		<path fill="#005AA0" d="M270.934,207.952c0.665,1.899,0.95,3.705,0.95,6.555c3.04-5.225,7.6-7.79,13.585-7.79
			c6.175,0,10.925,2.755,12.92,7.315c1.235,2.944,1.426,4.18,1.426,13.109v25.841h-6.65v-25.46c0-6.841-0.19-8.455-1.235-10.641
			c-1.425-2.755-4.085-4.275-7.79-4.275c-4.085,0-7.79,2.091-9.88,5.605c-1.33,2.375-1.995,5.32-1.995,9.595v25.176h-6.65v-29.735
			c0-10.735,0-11.115-1.045-15.295H270.934z"/>
		<path fill="#005AA0" d="M366.504,206.052c-0.664-7.22-5.13-11.305-12.35-11.305c-6.65,0-11.59,4.085-11.59,9.689
			c0,2.66,1.33,5.035,3.8,6.65c2.09,1.425,2.09,1.425,11.305,5.605c8.36,3.705,11.686,5.795,14.061,8.645
			c2.28,2.851,3.515,6.556,3.515,10.641c0,10.83-8.359,18.05-20.71,18.05c-7.695,0-13.775-2.755-17.385-7.695
			c-2.471-3.42-3.516-6.84-3.801-12.635h6.936c0.665,9.12,5.7,14.061,14.535,14.061c7.695,0,13.11-4.561,13.11-10.926
			c0-3.135-1.235-5.604-3.801-7.79c-1.994-1.71-3.609-2.564-9.88-5.32c-6.84-3.04-11.02-5.319-13.205-7.125
			c-3.705-3.04-5.604-6.935-5.604-11.59c0-9.595,7.979-16.53,19.095-16.53c6.936,0,12.73,2.755,15.96,7.601
			c1.9,2.755,2.66,5.51,2.945,9.975H366.504z"/>
		<path fill="#005AA0" d="M412.484,222.582c-1.235-7.315-3.99-10.165-9.785-10.165c-7.506,0-12.065,6.84-12.065,18.05
			c0,11.211,4.56,17.956,12.255,17.956c5.985,0,9.12-3.421,9.88-10.926h6.65c-0.854,10.83-6.65,16.625-16.53,16.625
			c-11.59,0-19.095-9.31-19.095-23.56c0-14.631,7.41-23.846,19.095-23.846c9.5,0,15.2,5.605,16.15,15.865H412.484z"/>
		<path fill="#005AA0" d="M438.038,193.702c0,2.755-1.995,4.75-4.845,4.75c-2.755,0-4.845-1.995-4.845-4.75
			c0-2.851,2.09-4.94,4.939-4.94C436.043,188.762,438.038,190.852,438.038,193.702z M436.708,207.952v45.03h-7.029v-45.03H436.708z"
			/>
		<path fill="#005AA0" d="M453.902,231.607c0.285,10.925,4.845,16.815,13.015,16.815c4.94,0,7.886-1.9,10.45-6.841l6.176,0.761
			c-2.756,7.79-8.455,11.779-16.721,11.779c-12.065,0-19.76-9.024-19.76-23.18c0-14.631,7.6-24.226,19.38-24.226
			c11.115,0,18.24,9.025,18.24,22.99c0,0.285,0,1.045-0.095,1.9H453.902z M477.748,226.382c-0.761-9.12-4.846-14.06-11.591-14.06
			c-6.555,0-10.735,4.845-12.065,14.06H477.748z"/>
		<path fill="#005AA0" d="M500.167,207.952c0.665,1.899,0.95,3.705,0.95,6.555c3.04-5.225,7.6-7.79,13.585-7.79
			c6.175,0,10.925,2.755,12.92,7.315c1.235,2.944,1.425,4.18,1.425,13.109v25.841h-6.649v-25.46c0-6.841-0.19-8.455-1.235-10.641
			c-1.425-2.755-4.085-4.275-7.79-4.275c-4.085,0-7.79,2.091-9.88,5.605c-1.33,2.375-1.995,5.32-1.995,9.595v25.176h-6.65v-29.735
			c0-10.735,0-11.115-1.045-15.295H500.167z"/>
		<path fill="#005AA0" d="M567.902,222.582c-1.235-7.315-3.99-10.165-9.785-10.165c-7.506,0-12.065,6.84-12.065,18.05
			c0,11.211,4.56,17.956,12.255,17.956c5.985,0,9.12-3.421,9.88-10.926h6.65c-0.854,10.83-6.65,16.625-16.53,16.625
			c-11.59,0-19.095-9.31-19.095-23.56c0-14.631,7.41-23.846,19.095-23.846c9.5,0,15.2,5.605,16.15,15.865H567.902z"/>
		<path fill="#005AA0" d="M589.276,231.607c0.285,10.925,4.845,16.815,13.015,16.815c4.94,0,7.886-1.9,10.45-6.841l6.176,0.761
			c-2.755,7.79-8.455,11.779-16.721,11.779c-12.065,0-19.76-9.024-19.76-23.18c0-14.631,7.6-24.226,19.38-24.226
			c11.115,0,18.24,9.025,18.24,22.99c0,0.285,0,1.045-0.095,1.9H589.276z M613.121,226.382c-0.76-9.12-4.845-14.06-11.59-14.06
			c-6.555,0-10.735,4.845-12.065,14.06H613.121z"/>
	</g>
	<g>
		<path fill="#005AA0" d="M152.104,107.512V76.535h14.688v76.536h-14.688V122.2h-26.229v30.871h-14.68V76.535h14.68v30.977H152.104z
			"/>
		<path fill="#005AA0" d="M231.497,76.535v14.68h-33.578v16.297h29.148V122.2h-29.148v16.191h33.578v14.68h-41.023
			c-0.651,0-1.301-0.221-1.732-0.756l-4.747-4.747c-0.536-0.431-0.756-1.081-0.756-1.731V83.761c0-0.642,0.22-1.292,0.756-1.723
			l4.747-4.746c0.431-0.44,1.081-0.757,1.732-0.757H231.497z"/>
		<path fill="#005AA0" d="M254.202,153.071c-0.65,0-1.301-0.221-1.732-0.756l-4.747-4.747c-0.545-0.431-0.756-1.081-0.756-1.731
			V76.535h14.68v61.856h31.952v14.68H254.202z"/>
		<path fill="#005AA0" d="M372.429,76.535v76.536h-14.68v-42.316l-11.981,25.043c-0.431,0.862-1.292,1.407-2.162,1.407h-8.632
			c-0.976,0-1.837-0.545-2.268-1.407l-11.981-25.043v42.316h-14.679V76.535h14.679l18.565,38.861l18.459-38.861H372.429z"/>
		<path fill="#005AA0" d="M428.826,107.512V76.535h14.688v76.536h-14.688V122.2h-26.229v30.871h-14.68V76.535h14.68v30.977H428.826z
			"/>
		<path fill="#005AA0" d="M502.496,80.201l7.665,7.56c2.268,2.268,3.56,5.396,3.56,8.632v36.813c0,3.243-1.292,6.373-3.56,8.641
			l-7.665,7.665c-2.268,2.268-5.397,3.561-8.641,3.561h-17.158c-3.244,0-6.479-1.188-8.746-3.561l-7.56-7.665
			c-2.268-2.268-3.56-5.397-3.56-8.641V96.393c0-3.235,1.292-6.364,3.56-8.632l7.56-7.56c2.373-2.374,5.502-3.666,8.746-3.666
			h17.158C497.099,76.535,500.123,77.933,502.496,80.201z M499.041,131.263V98.449c0-0.65-0.325-1.301-0.756-1.731l-4.641-4.747
			c-0.545-0.431-1.187-0.756-1.837-0.756h-13.167c-0.65,0-1.187,0.325-1.731,0.756l-4.641,4.747
			c-0.536,0.431-0.756,1.081-0.756,1.731v32.813c0,0.65,0.22,1.187,0.756,1.731l4.641,4.642c0.545,0.536,1.081,0.756,1.731,0.756
			h13.167c0.651,0,1.292-0.22,1.837-0.756l4.641-4.642C498.716,132.449,499.041,131.913,499.041,131.263z"/>
		<path fill="#005AA0" d="M533.947,153.071c-0.651,0-1.301-0.221-1.732-0.756l-4.747-4.747c-0.545-0.431-0.756-1.081-0.756-1.731
			V76.535h14.679v61.856h31.952v14.68H533.947z"/>
		<path fill="#005AA0" d="M572.289,91.215v-14.68h55.272v14.68h-20.297v61.856h-14.679V91.215H572.289z"/>
		<path fill="#005AA0" d="M684.389,77.292l4.747,4.746c0.431,0.431,0.756,1.081,0.756,1.723v3.779l-32.171,50.852h31.741v14.68
			h-43.827c-0.65,0-1.301-0.221-1.732-0.756l-4.747-4.747c-0.431-0.431-0.756-1.081-0.756-1.731v-4.422l31.741-50.2h-32.172v-14.68
			h44.689C683.308,76.535,683.958,76.852,684.389,77.292z"/>
	</g>
</g>
<g id="Ebene_2" display="none">
	<path display="inline" fill="#BCC2C3" d="M152.104,30.977V0h14.688v76.535h-14.688v-30.87h-26.229v30.87h-14.68V0h14.68v30.977
		H152.104z"/>
	<path display="inline" fill="#BCC2C3" d="M96.531,107.512V76.535h14.688v76.536H96.531V122.2H70.302v30.871h-14.68V76.535h14.68
		v30.977H96.531z"/>
	<path display="inline" fill="#BCC2C3" d="M40.934,107.512V76.535h14.688v76.536H40.934V122.2h-26.23v30.871H0.025V76.535h14.679
		v30.977H40.934z"/>
	<path display="inline" fill="#BCC2C3" d="M-14.663,107.512V76.535H0.025v76.536h-14.688V122.2h-26.23v30.871h-14.679V76.535h14.679
		v30.977H-14.663z"/>
	<path display="inline" fill="#BCC2C3" d="M894.195,304.33v-30.976h14.688v76.535h-14.688v-30.871h-26.229v30.871h-14.68v-76.535
		h14.68v30.976H894.195z"/>
	<path display="inline" fill="#BCC2C3" d="M838.598,304.33v-30.976h14.688v76.535h-14.688v-30.871h-26.23v30.871h-14.679v-76.535
		h14.679v30.976H838.598z"/>
	<path display="inline" fill="#BCC2C3" d="M783,304.33v-30.976h14.688v76.535H783v-30.871h-26.229v30.871h-14.68v-76.535h14.68
		v30.976H783z"/>
	<path display="inline" fill="#BCC2C3" d="M152.104-45.56v-30.976h14.688V0h-14.688v-30.871h-26.229V0h-14.68v-76.535h14.68v30.976
		H152.104z"/>
	<path display="inline" fill="#BCC2C3" d="M152.104,457.508v-30.976h14.688v76.535h-14.688v-30.871h-26.229v30.871h-14.68v-76.535
		h14.68v30.976H152.104z"/>
	<path display="inline" fill="#BCC2C3" d="M152.104,380.973v-30.977h14.688v76.536h-14.688v-30.871h-26.229v30.871h-14.68v-76.536
		h14.68v30.977H152.104z"/>
</g>
</svg>
